<?xml version="1.0" encoding="utf-8"?>
<!-- Generator: Adobe Illustrator 23.0.2, SVG Export Plug-In . SVG Version: 6.00 Build 0)  -->
<svg version="1.1" id="Layer_1" xmlns="http://www.w3.org/2000/svg" xmlns:xlink="http://www.w3.org/1999/xlink" x="0px" y="0px"
	 viewBox="0 0 1000 1000" style="enable-background:new 0 0 1000 1000;" xml:space="preserve">
<style type="text/css">
	.st0{display:none;}
	.st1{display:inline;}
	.st2{fill:#FFFFFF;}
	.st3{fill:#FFFFFF;stroke:#000000;stroke-width:16;stroke-miterlimit:10;}
	.st4{fill:#0652DD;}
</style>
<g id="x9oxc8.tif" class="st0">
	<g class="st1">
		<path class="st2" d="M-125,930c0-398,0-796,0-1194c398,0,796,0,1194,0c0,398,0,796,0,1194C671,930,273,930-125,930z M724.77,65.26
			c-31.4-30.73-79.51-27.09-104.74,8.48c-84.84,119.56-156.45,246.56-213.54,381.67c-3,7.1-6.92,13.82-10.94,21.75
			c-25.39-36.78-49.84-70.93-72.9-105.99c-21.76-33.09-59.62-30.06-86.13-20.82c-18.95,6.6-19.88,15.77-8.37,32.74
			c31.37,46.24,61.13,93.63,90.13,141.41c13.3,21.92,23.08,45.97,34.89,68.83c12.73,24.64,36.63,25.7,59.6,25.46
			c22.49-0.24,35.09-12.42,42.69-35.11c42.7-127.52,99.93-248.53,169.86-363.34C657.26,167.87,691.58,116.85,724.77,65.26z"/>
	</g>
</g>
<path class="st3" d="M760.52,930.74c-14.4-16.81-41.49-20.21-65.35-8.02c-4.44,2.27-8.75,4.94-12.75,7.92
	c-19.26,14.35-40.68,23.61-64.24,28.11c-6.03,1.15-11.97,2.78-18.59,4.33c0.09-7.7,5.38-10.96,10.8-13.39
	c8.32-3.73,17.1-6.42,25.46-10.05c6.19-2.69,12.27-5.82,17.91-9.5c2.63-1.72,4.1-5.21,6.1-7.89c-3.08-1.02-6.19-2.98-9.24-2.9
	c-15.61,0.41-31.21,1.81-46.82,1.96c-16.19,0.16-32.38-0.93-48.58-1.05c-7.66-0.05-15.34,0.89-23.4,1.41
	c0.14-8.4,6.36-13.66,14.38-15.01c12.4-2.09,25.11-2.38,37.71-3.22c22.3-1.48,44.78-1.53,66.86-4.56
	c18.99-2.6,25.94-11.73,21.91-30.2c-5.31-24.33-13.87-47.95-21.31-71.79c-0.51-1.62-3.31-3.56-5.07-3.59
	c-23.99-0.48-44.01-12.12-64.43-22.6c-6.55-3.36-13.11-6.78-19.39-10.61c-9.47-5.77-19.19-6.1-28.6-0.91
	c-9.26,5.11-18.04,11.12-26.82,17.04c-13.43,9.06-26.28,19.09-42.85,22.18c-1.98,0.37-4.05,2.4-5.32,4.2
	c-16.17,22.87-32.34,45.74-48.17,68.85c-3.28,4.79-5.73,10.35-7.55,15.89c-3.74,11.33,0.75,17.84,12.59,18.56
	c7.64,0.46,15.34-0.08,22.99,0.33c20,1.06,24.07,9.03,14.58,29.67c-9.21-11.83-22.31-13.12-35.6-13.64
	c-13.54-0.53-27.18,0.86-37.75,9.77c-23.17,19.54-49.87,29.62-79.55,33.07c-3.73,0.43-7.34,1.82-11.01,2.76
	c-0.71-0.66-1.43-1.32-2.14-1.98c3.45-3.56,6.27-8.44,10.47-10.41c9.01-4.25,18.88-6.61,28.08-10.49
	c6.99-2.95,13.72-6.7,20.08-10.85c2.19-1.43,2.9-5.15,4.28-7.82c-2.74-0.61-5.5-1.8-8.23-1.75c-20.91,0.36-41.81,1.36-62.71,1.33
	c-13.24-0.02-26.48-1.83-39.73-2.13c-6.53-0.15-13.09,1.3-19.59,2.02c-0.35-8.04,3.74-13.87,14.79-16.15
	c10.91-2.25,22.17-2.91,33.3-3.92c20.84-1.88,41.72-3.3,62.55-5.31c14.69-1.42,26.94-7.96,36.79-19.06
	c21.91-24.68,39.06-52.38,52.77-82.33c3.46-7.55,3.09-13.15-2.06-20.76c-7.99-11.83-13.07-25.62-19.37-38.58
	c-6.31-12.97-12.08-26.23-19.06-38.83c-8.32-15.01-21.57-24.06-37.49-30.67c-33.41-13.88-67.37-27.03-99.14-44.13
	c-63.7-34.28-97.98-90.44-109.15-160.72c-11.31-71.12-1.76-139.79,28.89-205.25c0.74-1.59,1.46-3.22,1.93-4.9
	c0.21-0.74-0.24-1.66-0.6-3.67c-1.99,1.27-3.71,1.98-4.91,3.2c-12.46,12.71-23.73,15.42-35.18,8.32
	c-10.27-6.37-14.59-22.3-9.56-36.61c2.24-6.37,5.43-12.41,7.7-18.77c2.35-6.62,3.05-13.38-2.51-19.01
	c-5.43-5.51-11.75-4.23-18.1-1.92c-6.09,2.21-12.1,4.69-18.3,6.55c-2.24,0.67-6.17,0.84-7.08-0.41c-1.45-1.98-2.18-5.92-1.15-8.01
	c3.61-7.37,8.09-14.32,12.26-21.42c1.74-2.95,3.52-5.87,6.66-11.09c-14.36,3.89-17.26-4.66-19.39-13.52
	c-3.08-12.77-3.24-25.34,6.37-35.76c1.97-2.14,5.63-3.27,8.69-3.76c9.81-1.57,14.14-6.9,14.21-16.89
	c0.05-6.38,0.75-13.09,2.87-19.05c4.09-11.52,11.66-13.42,21.52-6.47c7.09,5,12.31,4.32,17.37-2.76c3.42-4.78,5.9-10.26,9.52-14.87
	c9.07-11.54,21.16-10.1,26.67,3.44c3.11,7.65,7.14,6.99,13.07,3.98c6.74-3.42,13.52-7.51,20.76-9.03
	c11.1-2.33,21.97,4.15,27.11,14.07c5.31,10.25,3.85,22.88-3.63,31.35c-0.98,1.11-1.97,2.2-2.94,3.31
	c-8.5,9.71-8.16,13.94,3.52,19.27c45.45,20.76,72.47,56.82,87.82,103.18c4.8,14.51,9.82,29.15,16.7,42.74
	c18.6,36.75,49.72,56.35,90.29,58.97c19.83,1.28,39.94-2.14,59.95-2.95c30.29-1.24,60.72-4.31,90.86-2.56
	c51.77,3.01,95.34-14.18,134.29-46.52c35.3-29.31,63.28-64.98,89.52-102.23c6.78-9.63,13.89-19.15,21.86-27.78
	c16.7-18.07,33.91-19.78,54.47-6.09c22.59,15.03,33.61,37.38,38.61,63.11c8,41.2,1.56,81.65-7.49,121.81
	c-10.31,45.74-26.07,89.6-51.49,129.13c-23.13,35.96-37.12,74.14-41.33,116.94c-3.11,31.64-13.16,62.18-26.2,91.44
	c-10.98,24.64-27.28,44.65-50.53,58.74c-7.31,4.43-14.4,9.24-21.83,13.45c-12.57,7.12-21.43,17.06-26.47,30.79
	c-2.51,6.84-5.72,13.91-10.39,19.36c-5.84,6.81-6.09,13.57-3.75,21.15c9.88,32.07,19.87,64.1,29.83,96.14
	c2.35,7.57,8.58,9.91,15.44,11.5c6.59,1.53,13.34,2.68,19.67,4.96C764.13,906.17,767.71,916.35,760.52,930.74z"/>
<path class="st4" d="M775.77,96.26c-33.2,51.6-67.51,102.61-99.46,155.07c-69.93,114.81-127.16,235.82-169.86,363.34
	c-7.6,22.69-20.2,34.87-42.69,35.11c-22.97,0.24-46.87-0.82-59.6-25.46c-11.81-22.86-21.59-46.9-34.89-68.83
	c-29-47.78-58.76-95.17-90.13-141.41c-11.51-16.97-10.58-26.14,8.37-32.74c26.51-9.24,64.37-12.27,86.13,20.82
	c23.06,35.06,47.51,69.21,72.9,105.99c4.02-7.94,7.94-14.65,10.94-21.75c57.09-135.11,128.7-262.12,213.54-381.67
	C696.27,69.17,744.37,65.53,775.77,96.26z"/>
</svg>
